<mxfile host="app.diagrams.net" modified="2023-11-27T07:28:18.457Z" agent="Mozilla/5.0 (Windows NT 10.0; Win64; x64) AppleWebKit/537.36 (KHTML, like Gecko) Chrome/118.0.0.0 Safari/537.36 OPR/104.0.0.0" etag="g4O9gVZUbNe-tjb2DHge" version="22.1.4" type="device">
  <diagram id="R2lEEEUBdFMjLlhIrx00" name="Page-1">
    <mxGraphModel dx="1393" dy="758" grid="0" gridSize="10" guides="1" tooltips="1" connect="1" arrows="1" fold="1" page="1" pageScale="1" pageWidth="850" pageHeight="1100" math="0" shadow="0" extFonts="Permanent Marker^https://fonts.googleapis.com/css?family=Permanent+Marker">
      <root>
        <mxCell id="0" />
        <mxCell id="1" parent="0" />
        <mxCell id="O0CfwukFVVHpra1-1LsU-1" value="Исполнитель" style="shape=umlActor;verticalLabelPosition=bottom;verticalAlign=top;html=1;outlineConnect=0;" parent="1" vertex="1">
          <mxGeometry x="150" y="68" width="30" height="60" as="geometry" />
        </mxCell>
        <mxCell id="O0CfwukFVVHpra1-1LsU-2" value="" style="endArrow=none;html=1;rounded=0;exitX=1;exitY=0.3333333333333333;exitDx=0;exitDy=0;exitPerimeter=0;entryX=0;entryY=0.5;entryDx=0;entryDy=0;" parent="1" source="O0CfwukFVVHpra1-1LsU-1" target="O0CfwukFVVHpra1-1LsU-3" edge="1">
          <mxGeometry width="50" height="50" relative="1" as="geometry">
            <mxPoint x="400" y="430" as="sourcePoint" />
            <mxPoint x="220" y="160" as="targetPoint" />
          </mxGeometry>
        </mxCell>
        <mxCell id="O0CfwukFVVHpra1-1LsU-3" value="Изменить статус заказа" style="ellipse;whiteSpace=wrap;html=1;" parent="1" vertex="1">
          <mxGeometry x="240" y="120" width="120" height="80" as="geometry" />
        </mxCell>
        <mxCell id="O0CfwukFVVHpra1-1LsU-4" value="Клиент" style="shape=umlActor;verticalLabelPosition=bottom;verticalAlign=top;html=1;outlineConnect=0;" parent="1" vertex="1">
          <mxGeometry x="187" y="273" width="30" height="60" as="geometry" />
        </mxCell>
        <mxCell id="O0CfwukFVVHpra1-1LsU-6" value="" style="endArrow=none;html=1;rounded=0;exitX=1;exitY=0.3333333333333333;exitDx=0;exitDy=0;exitPerimeter=0;entryX=0;entryY=0.5;entryDx=0;entryDy=0;" parent="1" source="O0CfwukFVVHpra1-1LsU-4" target="JAfkSwrgmQGut89km24r-3" edge="1">
          <mxGeometry width="50" height="50" relative="1" as="geometry">
            <mxPoint x="147" y="93" as="sourcePoint" />
            <mxPoint x="267" y="273" as="targetPoint" />
          </mxGeometry>
        </mxCell>
        <mxCell id="O0CfwukFVVHpra1-1LsU-10" value="Выдать заказ" style="ellipse;whiteSpace=wrap;html=1;" parent="1" vertex="1">
          <mxGeometry x="250" y="10" width="120" height="80" as="geometry" />
        </mxCell>
        <mxCell id="O0CfwukFVVHpra1-1LsU-11" value="" style="endArrow=none;html=1;rounded=0;exitX=1;exitY=0.3333333333333333;exitDx=0;exitDy=0;exitPerimeter=0;entryX=0;entryY=0.5;entryDx=0;entryDy=0;" parent="1" source="O0CfwukFVVHpra1-1LsU-1" target="O0CfwukFVVHpra1-1LsU-10" edge="1">
          <mxGeometry width="50" height="50" relative="1" as="geometry">
            <mxPoint x="150" y="200" as="sourcePoint" />
            <mxPoint x="260" y="170" as="targetPoint" />
          </mxGeometry>
        </mxCell>
        <mxCell id="O0CfwukFVVHpra1-1LsU-12" value="" style="endArrow=none;dashed=1;html=1;rounded=0;entryX=0.5;entryY=0;entryDx=0;entryDy=0;" parent="1" source="O0CfwukFVVHpra1-1LsU-10" target="O0CfwukFVVHpra1-1LsU-3" edge="1">
          <mxGeometry width="50" height="50" relative="1" as="geometry">
            <mxPoint x="380" y="170" as="sourcePoint" />
            <mxPoint x="438" y="202" as="targetPoint" />
          </mxGeometry>
        </mxCell>
        <mxCell id="O0CfwukFVVHpra1-1LsU-14" value="Получить заказ" style="ellipse;whiteSpace=wrap;html=1;" parent="1" vertex="1">
          <mxGeometry x="17" y="223" width="140" height="50" as="geometry" />
        </mxCell>
        <mxCell id="O0CfwukFVVHpra1-1LsU-15" value="" style="endArrow=none;html=1;rounded=0;exitX=0;exitY=0.3333333333333333;exitDx=0;exitDy=0;exitPerimeter=0;entryX=1;entryY=1;entryDx=0;entryDy=0;" parent="1" source="O0CfwukFVVHpra1-1LsU-4" target="O0CfwukFVVHpra1-1LsU-14" edge="1">
          <mxGeometry width="50" height="50" relative="1" as="geometry">
            <mxPoint x="147" y="213" as="sourcePoint" />
            <mxPoint x="237" y="188" as="targetPoint" />
          </mxGeometry>
        </mxCell>
        <mxCell id="O0CfwukFVVHpra1-1LsU-20" value="" style="endArrow=none;dashed=1;html=1;dashPattern=1 3;strokeWidth=2;rounded=0;entryX=0.7;entryY=1.011;entryDx=0;entryDy=0;entryPerimeter=0;" parent="1" edge="1">
          <mxGeometry width="50" height="50" relative="1" as="geometry">
            <mxPoint x="800" y="90" as="sourcePoint" />
            <mxPoint x="730" y="90" as="targetPoint" />
          </mxGeometry>
        </mxCell>
        <mxCell id="O0CfwukFVVHpra1-1LsU-21" value="Extended" style="text;html=1;align=center;verticalAlign=middle;resizable=0;points=[];autosize=1;strokeColor=none;fillColor=none;" parent="1" vertex="1">
          <mxGeometry x="730" y="50" width="70" height="30" as="geometry" />
        </mxCell>
        <mxCell id="O0CfwukFVVHpra1-1LsU-22" value="" style="endArrow=none;dashed=1;html=1;rounded=0;" parent="1" edge="1">
          <mxGeometry width="50" height="50" relative="1" as="geometry">
            <mxPoint x="800" y="150" as="sourcePoint" />
            <mxPoint x="730" y="150" as="targetPoint" />
          </mxGeometry>
        </mxCell>
        <mxCell id="O0CfwukFVVHpra1-1LsU-23" value="Include" style="text;html=1;align=center;verticalAlign=middle;resizable=0;points=[];autosize=1;strokeColor=none;fillColor=none;" parent="1" vertex="1">
          <mxGeometry x="740" y="110" width="60" height="30" as="geometry" />
        </mxCell>
        <mxCell id="O0CfwukFVVHpra1-1LsU-24" value="" style="endArrow=none;html=1;rounded=0;entryX=0;entryY=0.5;entryDx=0;entryDy=0;" parent="1" edge="1">
          <mxGeometry width="50" height="50" relative="1" as="geometry">
            <mxPoint x="805" y="190.5" as="sourcePoint" />
            <mxPoint x="735" y="190" as="targetPoint" />
          </mxGeometry>
        </mxCell>
        <mxCell id="O0CfwukFVVHpra1-1LsU-25" value="Ассоциация" style="edgeLabel;html=1;align=center;verticalAlign=middle;resizable=0;points=[];" parent="O0CfwukFVVHpra1-1LsU-24" vertex="1" connectable="0">
          <mxGeometry x="0.2586" y="-7" relative="1" as="geometry">
            <mxPoint x="4" y="-13" as="offset" />
          </mxGeometry>
        </mxCell>
        <mxCell id="O0CfwukFVVHpra1-1LsU-32" value="" style="endArrow=classic;html=1;rounded=0;" parent="1" edge="1">
          <mxGeometry width="50" height="50" relative="1" as="geometry">
            <mxPoint x="725" y="250" as="sourcePoint" />
            <mxPoint x="805" y="250" as="targetPoint" />
          </mxGeometry>
        </mxCell>
        <mxCell id="O0CfwukFVVHpra1-1LsU-33" value="Обобщение" style="text;html=1;align=center;verticalAlign=middle;resizable=0;points=[];autosize=1;strokeColor=none;fillColor=none;" parent="1" vertex="1">
          <mxGeometry x="717" y="211" width="90" height="30" as="geometry" />
        </mxCell>
        <mxCell id="JAfkSwrgmQGut89km24r-1" value="" style="endArrow=none;dashed=1;html=1;dashPattern=1 3;strokeWidth=2;rounded=0;entryX=1;entryY=0.5;entryDx=0;entryDy=0;exitX=0;exitY=0.5;exitDx=0;exitDy=0;" edge="1" parent="1" source="JAfkSwrgmQGut89km24r-2" target="O0CfwukFVVHpra1-1LsU-10">
          <mxGeometry width="50" height="50" relative="1" as="geometry">
            <mxPoint x="485" y="49.5" as="sourcePoint" />
            <mxPoint x="415" y="49.5" as="targetPoint" />
          </mxGeometry>
        </mxCell>
        <mxCell id="JAfkSwrgmQGut89km24r-2" value="Отправить получателю по почте" style="ellipse;whiteSpace=wrap;html=1;" vertex="1" parent="1">
          <mxGeometry x="425" y="10" width="145" height="80" as="geometry" />
        </mxCell>
        <mxCell id="JAfkSwrgmQGut89km24r-3" value="Добавить книги в корзину" style="ellipse;whiteSpace=wrap;html=1;" vertex="1" parent="1">
          <mxGeometry x="267" y="223" width="140" height="50" as="geometry" />
        </mxCell>
        <mxCell id="JAfkSwrgmQGut89km24r-4" value="" style="endArrow=none;dashed=1;html=1;dashPattern=1 3;strokeWidth=2;rounded=0;entryX=0.5;entryY=1;entryDx=0;entryDy=0;exitX=0.5;exitY=0;exitDx=0;exitDy=0;" edge="1" parent="1" source="JAfkSwrgmQGut89km24r-5" target="JAfkSwrgmQGut89km24r-3">
          <mxGeometry width="50" height="50" relative="1" as="geometry">
            <mxPoint x="337" y="313" as="sourcePoint" />
            <mxPoint x="377" y="363" as="targetPoint" />
          </mxGeometry>
        </mxCell>
        <mxCell id="JAfkSwrgmQGut89km24r-5" value="Управлять содержимым корзины" style="ellipse;whiteSpace=wrap;html=1;" vertex="1" parent="1">
          <mxGeometry x="252" y="293" width="170" height="50" as="geometry" />
        </mxCell>
        <mxCell id="JAfkSwrgmQGut89km24r-6" value="" style="endArrow=none;dashed=1;html=1;dashPattern=1 3;strokeWidth=2;rounded=0;entryX=1;entryY=0.5;entryDx=0;entryDy=0;exitX=0;exitY=1;exitDx=0;exitDy=0;" edge="1" parent="1" source="JAfkSwrgmQGut89km24r-7" target="JAfkSwrgmQGut89km24r-3">
          <mxGeometry width="50" height="50" relative="1" as="geometry">
            <mxPoint x="467" y="243" as="sourcePoint" />
            <mxPoint x="492" y="233" as="targetPoint" />
          </mxGeometry>
        </mxCell>
        <mxCell id="JAfkSwrgmQGut89km24r-7" value="Оформить заказ" style="ellipse;whiteSpace=wrap;html=1;" vertex="1" parent="1">
          <mxGeometry x="437" y="193" width="140" height="50" as="geometry" />
        </mxCell>
        <mxCell id="JAfkSwrgmQGut89km24r-8" value="Администратор" style="shape=umlActor;verticalLabelPosition=bottom;verticalAlign=top;html=1;outlineConnect=0;" vertex="1" parent="1">
          <mxGeometry x="313" y="426.55" width="30" height="60" as="geometry" />
        </mxCell>
        <mxCell id="JAfkSwrgmQGut89km24r-10" value="" style="endArrow=none;html=1;rounded=0;entryX=1;entryY=0.3333333333333333;entryDx=0;entryDy=0;entryPerimeter=0;exitX=0.065;exitY=0.8;exitDx=0;exitDy=0;exitPerimeter=0;" edge="1" parent="1" source="JAfkSwrgmQGut89km24r-12" target="JAfkSwrgmQGut89km24r-8">
          <mxGeometry width="50" height="50" relative="1" as="geometry">
            <mxPoint x="397" y="427.55" as="sourcePoint" />
            <mxPoint x="495" y="426.55" as="targetPoint" />
          </mxGeometry>
        </mxCell>
        <mxCell id="JAfkSwrgmQGut89km24r-12" value="Добавлять/удалять книги в системе" style="ellipse;whiteSpace=wrap;html=1;" vertex="1" parent="1">
          <mxGeometry x="367" y="351.55" width="170" height="50" as="geometry" />
        </mxCell>
        <mxCell id="JAfkSwrgmQGut89km24r-13" value="Просматривать и изменять статусы заказов" style="ellipse;whiteSpace=wrap;html=1;" vertex="1" parent="1">
          <mxGeometry x="394" y="416.55" width="170" height="50" as="geometry" />
        </mxCell>
        <mxCell id="JAfkSwrgmQGut89km24r-14" value="" style="endArrow=none;html=1;rounded=0;exitX=1;exitY=0.3333333333333333;exitDx=0;exitDy=0;exitPerimeter=0;entryX=0;entryY=0.5;entryDx=0;entryDy=0;" edge="1" parent="1" source="JAfkSwrgmQGut89km24r-8" target="JAfkSwrgmQGut89km24r-13">
          <mxGeometry width="50" height="50" relative="1" as="geometry">
            <mxPoint x="268" y="446.05" as="sourcePoint" />
            <mxPoint x="289" y="430.55" as="targetPoint" />
          </mxGeometry>
        </mxCell>
        <mxCell id="JAfkSwrgmQGut89km24r-16" value="" style="endArrow=classic;html=1;rounded=0;" edge="1" parent="1" source="JAfkSwrgmQGut89km24r-8" target="O0CfwukFVVHpra1-1LsU-4">
          <mxGeometry width="50" height="50" relative="1" as="geometry">
            <mxPoint x="248" y="452" as="sourcePoint" />
            <mxPoint x="246" y="429" as="targetPoint" />
          </mxGeometry>
        </mxCell>
      </root>
    </mxGraphModel>
  </diagram>
</mxfile>
